<mxfile host="drawio-plugin" modified="2022-05-21T15:19:28.682Z" agent="5.0 (Windows NT 6.2; Win64; x64) AppleWebKit/537.36 (KHTML, like Gecko) Chrome/89.0.4389.114 Safari/537.36" etag="Xo9WiSTsbz5wtNVnCXG1" version="15.5.4" type="embed"><diagram id="AWyFd7vW8OQIoeeMFhMC" name="Page-1"><mxGraphModel dx="899" dy="735" grid="1" gridSize="10" guides="1" tooltips="1" connect="1" arrows="1" fold="1" page="1" pageScale="1" pageWidth="827" pageHeight="1169" math="0" shadow="0"><root><mxCell id="0"/><mxCell id="1" parent="0"/><mxCell id="1aFgJYDSJkooBqPx0Uei-1" value="&lt;p style=&quot;margin:0px;margin-top:6px;text-align:center;&quot;&gt;&lt;b&gt;Player&lt;/b&gt;&lt;/p&gt;&lt;hr&gt;" style="align=left;overflow=fill;html=1;dropTarget=0;rounded=1;" parent="1" vertex="1"><mxGeometry x="20" y="480" width="180" height="90" as="geometry"/></mxCell><mxCell id="1aFgJYDSJkooBqPx0Uei-2" value="" style="shape=component;jettyWidth=8;jettyHeight=4;rounded=1;" parent="1aFgJYDSJkooBqPx0Uei-1" vertex="1"><mxGeometry x="1" width="20" height="20" relative="1" as="geometry"><mxPoint x="-24" y="4" as="offset"/></mxGeometry></mxCell><mxCell id="1aFgJYDSJkooBqPx0Uei-3" value="&lt;p style=&quot;margin:0px;margin-top:6px;text-align:center;&quot;&gt;&lt;b&gt;Rule&lt;/b&gt;&lt;/p&gt;&lt;hr&gt;&lt;p style=&quot;margin:0px;margin-left:8px;&quot;&gt;&lt;br&gt;&lt;/p&gt;" style="align=left;overflow=fill;html=1;dropTarget=0;rounded=1;" parent="1" vertex="1"><mxGeometry x="630" y="480" width="180" height="90" as="geometry"/></mxCell><mxCell id="1aFgJYDSJkooBqPx0Uei-4" value="" style="shape=component;jettyWidth=8;jettyHeight=4;rounded=1;" parent="1aFgJYDSJkooBqPx0Uei-3" vertex="1"><mxGeometry x="1" width="20" height="20" relative="1" as="geometry"><mxPoint x="-24" y="4" as="offset"/></mxGeometry></mxCell><mxCell id="1aFgJYDSJkooBqPx0Uei-5" value="&lt;p style=&quot;margin:0px;margin-top:6px;text-align:center;&quot;&gt;&lt;b&gt;Game&lt;/b&gt;&lt;/p&gt;&lt;hr&gt;&lt;p style=&quot;margin:0px;margin-left:8px;&quot;&gt;&lt;br&gt;&lt;br&gt;&lt;/p&gt;" style="align=left;overflow=fill;html=1;dropTarget=0;rounded=1;" parent="1" vertex="1"><mxGeometry x="310" y="480" width="180" height="90" as="geometry"/></mxCell><mxCell id="1aFgJYDSJkooBqPx0Uei-6" value="" style="shape=component;jettyWidth=8;jettyHeight=4;rounded=1;" parent="1aFgJYDSJkooBqPx0Uei-5" vertex="1"><mxGeometry x="1" width="20" height="20" relative="1" as="geometry"><mxPoint x="-24" y="4" as="offset"/></mxGeometry></mxCell><mxCell id="1aFgJYDSJkooBqPx0Uei-7" value="&lt;p style=&quot;margin:0px;margin-top:6px;text-align:center;&quot;&gt;&lt;b&gt;Deck&lt;/b&gt;&lt;/p&gt;&lt;hr&gt;&lt;p style=&quot;margin:0px;margin-left:8px;&quot;&gt;&lt;br&gt;&lt;br&gt;&lt;/p&gt;" style="align=left;overflow=fill;html=1;dropTarget=0;rounded=1;" parent="1" vertex="1"><mxGeometry x="310" y="690" width="180" height="90" as="geometry"/></mxCell><mxCell id="1aFgJYDSJkooBqPx0Uei-8" value="" style="shape=component;jettyWidth=8;jettyHeight=4;rounded=1;" parent="1aFgJYDSJkooBqPx0Uei-7" vertex="1"><mxGeometry x="1" width="20" height="20" relative="1" as="geometry"><mxPoint x="-24" y="4" as="offset"/></mxGeometry></mxCell><mxCell id="1aFgJYDSJkooBqPx0Uei-9" value="&lt;p style=&quot;margin:0px;margin-top:6px;text-align:center;&quot;&gt;&lt;b&gt;Card&lt;/b&gt;&lt;/p&gt;&lt;hr&gt;&lt;p style=&quot;margin:0px;margin-left:8px;&quot;&gt;&lt;br&gt;&lt;br&gt;&lt;/p&gt;" style="align=left;overflow=fill;html=1;dropTarget=0;rounded=1;" parent="1" vertex="1"><mxGeometry x="310" y="920" width="180" height="90" as="geometry"/></mxCell><mxCell id="1aFgJYDSJkooBqPx0Uei-10" value="" style="shape=component;jettyWidth=8;jettyHeight=4;rounded=1;" parent="1aFgJYDSJkooBqPx0Uei-9" vertex="1"><mxGeometry x="1" width="20" height="20" relative="1" as="geometry"><mxPoint x="-24" y="4" as="offset"/></mxGeometry></mxCell><mxCell id="1aFgJYDSJkooBqPx0Uei-11" value="&lt;p style=&quot;margin:0px;margin-top:6px;text-align:center;&quot;&gt;&lt;b&gt;Ui Controller&lt;/b&gt;&lt;/p&gt;&lt;hr&gt;&lt;p style=&quot;margin:0px;margin-left:8px;&quot;&gt;&lt;br&gt;&lt;br&gt;&lt;/p&gt;" style="align=left;overflow=fill;html=1;dropTarget=0;rounded=1;gradientColor=none;glass=0;shadow=0;sketch=0;" parent="1" vertex="1"><mxGeometry x="310" y="40" width="180" height="90" as="geometry"/></mxCell><mxCell id="1aFgJYDSJkooBqPx0Uei-12" value="" style="shape=component;jettyWidth=8;jettyHeight=4;rounded=1;" parent="1aFgJYDSJkooBqPx0Uei-11" vertex="1"><mxGeometry x="1" width="20" height="20" relative="1" as="geometry"><mxPoint x="-24" y="4" as="offset"/></mxGeometry></mxCell><mxCell id="1aFgJYDSJkooBqPx0Uei-16" value="" style="rounded=1;orthogonalLoop=1;jettySize=auto;html=1;endArrow=none;endFill=0;sourcePerimeterSpacing=0;targetPerimeterSpacing=0;exitX=0.5;exitY=0;exitDx=0;exitDy=0;" parent="1" source="1aFgJYDSJkooBqPx0Uei-9" target="1aFgJYDSJkooBqPx0Uei-18" edge="1"><mxGeometry relative="1" as="geometry"><mxPoint x="380" y="845" as="sourcePoint"/></mxGeometry></mxCell><mxCell id="1aFgJYDSJkooBqPx0Uei-17" value="" style="rounded=1;orthogonalLoop=1;jettySize=auto;html=1;endArrow=halfCircle;endFill=0;entryX=0.5;entryY=0.5;endSize=6;strokeWidth=1;exitX=0.5;exitY=1;exitDx=0;exitDy=0;" parent="1" source="1aFgJYDSJkooBqPx0Uei-7" target="1aFgJYDSJkooBqPx0Uei-18" edge="1"><mxGeometry relative="1" as="geometry"><mxPoint x="420" y="845" as="sourcePoint"/></mxGeometry></mxCell><mxCell id="1aFgJYDSJkooBqPx0Uei-18" value="" style="ellipse;whiteSpace=wrap;html=1;align=center;aspect=fixed;resizable=0;points=[];outlineConnect=0;rounded=1;" parent="1" vertex="1"><mxGeometry x="395" y="840" width="10" height="10" as="geometry"/></mxCell><mxCell id="1aFgJYDSJkooBqPx0Uei-28" value="" style="rounded=1;orthogonalLoop=1;jettySize=auto;html=1;endArrow=none;endFill=0;sourcePerimeterSpacing=0;targetPerimeterSpacing=0;exitX=1;exitY=0.5;exitDx=0;exitDy=0;" parent="1" source="1aFgJYDSJkooBqPx0Uei-1" target="1aFgJYDSJkooBqPx0Uei-30" edge="1"><mxGeometry relative="1" as="geometry"><mxPoint x="240" y="525" as="sourcePoint"/></mxGeometry></mxCell><mxCell id="1aFgJYDSJkooBqPx0Uei-29" value="" style="rounded=1;orthogonalLoop=1;jettySize=auto;html=1;endArrow=halfCircle;endFill=0;entryX=0.5;entryY=0.5;endSize=6;strokeWidth=1;exitX=0;exitY=0.5;exitDx=0;exitDy=0;" parent="1" source="1aFgJYDSJkooBqPx0Uei-5" target="1aFgJYDSJkooBqPx0Uei-30" edge="1"><mxGeometry relative="1" as="geometry"><mxPoint x="280" y="525" as="sourcePoint"/></mxGeometry></mxCell><mxCell id="1aFgJYDSJkooBqPx0Uei-30" value="" style="ellipse;whiteSpace=wrap;html=1;align=center;aspect=fixed;resizable=0;points=[];outlineConnect=0;rounded=1;" parent="1" vertex="1"><mxGeometry x="255" y="520" width="10" height="10" as="geometry"/></mxCell><mxCell id="1aFgJYDSJkooBqPx0Uei-31" value="" style="rounded=1;orthogonalLoop=1;jettySize=auto;html=1;endArrow=none;endFill=0;sourcePerimeterSpacing=0;targetPerimeterSpacing=0;exitX=0;exitY=0.5;exitDx=0;exitDy=0;" parent="1" source="1aFgJYDSJkooBqPx0Uei-3" target="1aFgJYDSJkooBqPx0Uei-33" edge="1"><mxGeometry relative="1" as="geometry"><mxPoint x="550" y="525" as="sourcePoint"/></mxGeometry></mxCell><mxCell id="1aFgJYDSJkooBqPx0Uei-32" value="" style="rounded=1;orthogonalLoop=1;jettySize=auto;html=1;endArrow=halfCircle;endFill=0;entryX=0.5;entryY=0.5;endSize=6;strokeWidth=1;exitX=1;exitY=0.5;exitDx=0;exitDy=0;" parent="1" source="1aFgJYDSJkooBqPx0Uei-5" target="1aFgJYDSJkooBqPx0Uei-33" edge="1"><mxGeometry relative="1" as="geometry"><mxPoint x="590" y="525" as="sourcePoint"/></mxGeometry></mxCell><mxCell id="1aFgJYDSJkooBqPx0Uei-33" value="" style="ellipse;whiteSpace=wrap;html=1;align=center;aspect=fixed;resizable=0;points=[];outlineConnect=0;rounded=1;" parent="1" vertex="1"><mxGeometry x="565" y="520" width="10" height="10" as="geometry"/></mxCell><mxCell id="1aFgJYDSJkooBqPx0Uei-34" value="" style="rounded=1;orthogonalLoop=1;jettySize=auto;html=1;endArrow=none;endFill=0;sourcePerimeterSpacing=0;targetPerimeterSpacing=0;exitX=0.5;exitY=0;exitDx=0;exitDy=0;" parent="1" source="1aFgJYDSJkooBqPx0Uei-7" edge="1"><mxGeometry relative="1" as="geometry"><mxPoint x="374" y="635" as="sourcePoint"/><mxPoint x="400" y="640" as="targetPoint"/></mxGeometry></mxCell><mxCell id="1aFgJYDSJkooBqPx0Uei-35" value="" style="rounded=1;orthogonalLoop=1;jettySize=auto;html=1;endArrow=halfCircle;endFill=0;entryX=0.5;entryY=0.5;endSize=6;strokeWidth=1;exitX=0.5;exitY=1;exitDx=0;exitDy=0;" parent="1" source="1aFgJYDSJkooBqPx0Uei-5" target="1aFgJYDSJkooBqPx0Uei-36" edge="1"><mxGeometry relative="1" as="geometry"><mxPoint x="414" y="635" as="sourcePoint"/></mxGeometry></mxCell><mxCell id="1aFgJYDSJkooBqPx0Uei-36" value="" style="ellipse;whiteSpace=wrap;html=1;align=center;aspect=fixed;resizable=0;points=[];outlineConnect=0;rounded=1;" parent="1" vertex="1"><mxGeometry x="395" y="630" width="10" height="10" as="geometry"/></mxCell><mxCell id="1aFgJYDSJkooBqPx0Uei-37" value="" style="rounded=1;orthogonalLoop=1;jettySize=auto;html=1;endArrow=none;endFill=0;sourcePerimeterSpacing=0;targetPerimeterSpacing=0;exitX=0.5;exitY=0;exitDx=0;exitDy=0;" parent="1" source="1aFgJYDSJkooBqPx0Uei-5" target="1aFgJYDSJkooBqPx0Uei-39" edge="1"><mxGeometry relative="1" as="geometry"><mxPoint x="380" y="415" as="sourcePoint"/></mxGeometry></mxCell><mxCell id="1aFgJYDSJkooBqPx0Uei-38" value="" style="rounded=1;orthogonalLoop=1;jettySize=auto;html=1;endArrow=halfCircle;endFill=0;entryX=0.5;entryY=0.5;endSize=6;strokeWidth=1;exitX=0.5;exitY=1;exitDx=0;exitDy=0;" parent="1" source="1aFgJYDSJkooBqPx0Uei-11" target="1aFgJYDSJkooBqPx0Uei-39" edge="1"><mxGeometry relative="1" as="geometry"><mxPoint x="420" y="415" as="sourcePoint"/></mxGeometry></mxCell><mxCell id="1aFgJYDSJkooBqPx0Uei-39" value="" style="ellipse;whiteSpace=wrap;html=1;align=center;aspect=fixed;resizable=0;points=[];outlineConnect=0;rounded=1;" parent="1" vertex="1"><mxGeometry x="395" y="260" width="10" height="10" as="geometry"/></mxCell><mxCell id="2" value="" style="rounded=0;orthogonalLoop=1;jettySize=auto;html=1;endArrow=none;endFill=0;sketch=0;sourcePerimeterSpacing=0;targetPerimeterSpacing=0;" parent="1" source="1aFgJYDSJkooBqPx0Uei-9" target="4" edge="1"><mxGeometry relative="1" as="geometry"><mxPoint x="90" y="965" as="sourcePoint"/></mxGeometry></mxCell><mxCell id="3" value="" style="rounded=0;orthogonalLoop=1;jettySize=auto;html=1;endArrow=halfCircle;endFill=0;entryX=0.5;entryY=0.5;endSize=6;strokeWidth=1;sketch=0;exitX=0.5;exitY=1;exitDx=0;exitDy=0;" parent="1" source="1aFgJYDSJkooBqPx0Uei-1" target="4" edge="1"><mxGeometry relative="1" as="geometry"><mxPoint x="130" y="965" as="sourcePoint"/></mxGeometry></mxCell><mxCell id="4" value="" style="ellipse;whiteSpace=wrap;html=1;align=center;aspect=fixed;resizable=0;points=[];outlineConnect=0;sketch=0;" parent="1" vertex="1"><mxGeometry x="105" y="960" width="10" height="10" as="geometry"/></mxCell><mxCell id="5" value="" style="rounded=0;orthogonalLoop=1;jettySize=auto;html=1;endArrow=none;endFill=0;sketch=0;sourcePerimeterSpacing=0;targetPerimeterSpacing=0;exitX=1;exitY=0.5;exitDx=0;exitDy=0;" parent="1" source="1aFgJYDSJkooBqPx0Uei-9" edge="1"><mxGeometry relative="1" as="geometry"><mxPoint x="700" y="975" as="sourcePoint"/><mxPoint x="710" y="965" as="targetPoint"/></mxGeometry></mxCell><mxCell id="6" value="" style="rounded=0;orthogonalLoop=1;jettySize=auto;html=1;endArrow=halfCircle;endFill=0;entryX=0.5;entryY=0.5;endSize=6;strokeWidth=1;sketch=0;exitX=0.5;exitY=1;exitDx=0;exitDy=0;" parent="1" source="1aFgJYDSJkooBqPx0Uei-3" target="7" edge="1"><mxGeometry relative="1" as="geometry"><mxPoint x="740" y="975" as="sourcePoint"/></mxGeometry></mxCell><mxCell id="7" value="" style="ellipse;whiteSpace=wrap;html=1;align=center;aspect=fixed;resizable=0;points=[];outlineConnect=0;sketch=0;" parent="1" vertex="1"><mxGeometry x="715" y="960" width="10" height="10" as="geometry"/></mxCell><mxCell id="8" value="" style="rounded=0;orthogonalLoop=1;jettySize=auto;html=1;endArrow=none;endFill=0;sketch=0;sourcePerimeterSpacing=0;targetPerimeterSpacing=0;exitX=0.5;exitY=0;exitDx=0;exitDy=0;" edge="1" target="10" parent="1" source="1aFgJYDSJkooBqPx0Uei-1"><mxGeometry relative="1" as="geometry"><mxPoint x="290" y="405" as="sourcePoint"/><Array as="points"><mxPoint x="110" y="405"/></Array></mxGeometry></mxCell><mxCell id="9" value="" style="rounded=0;orthogonalLoop=1;jettySize=auto;html=1;endArrow=halfCircle;endFill=0;entryX=0.5;entryY=0.5;endSize=6;strokeWidth=1;sketch=0;exitX=0.5;exitY=0;exitDx=0;exitDy=0;" edge="1" target="10" parent="1" source="1aFgJYDSJkooBqPx0Uei-3"><mxGeometry relative="1" as="geometry"><mxPoint x="330" y="405" as="sourcePoint"/><Array as="points"><mxPoint x="720" y="405"/></Array></mxGeometry></mxCell><mxCell id="10" value="" style="ellipse;whiteSpace=wrap;html=1;align=center;aspect=fixed;resizable=0;points=[];outlineConnect=0;sketch=0;" vertex="1" parent="1"><mxGeometry x="305" y="400" width="10" height="10" as="geometry"/></mxCell></root></mxGraphModel></diagram></mxfile>